# xmcd
# Track frame offsets:
# 150
# 12702
# 26727
# 39055
# 50210
# 62525
# 75697
# 88860
# 103275
# 116210
#
# Disc length: 1705 seconds
# Revision: 0
# Processed by: cddbd v1.4PL0 Copyright (c) Steve Scherf et al.
# Submitted via: VisiTrax 2.9.3.171 - For more info visit www.synapsa.com
#
DISCID=8706a70a
DTITLE=Ronnie McDowell - Your Precious Love
DYEAR=1991
DGENRE=Country
TTITLE0=A Lover's Question
TTITLE1=Without Love
TTITLE2=Forever
TTITLE3=To Be Loved
TTITLE4=Don't Let Go
TTITLE5=Just Out of Reach
TTITLE6=Let Them Talk
TTITLE7=For Your Precious Love
TTITLE8=Hold Me, Thrill Me, Kiss Me
TTITLE9=I Believe
EXTD=
EXTT0=
EXTT1=
EXTT2=
EXTT3=
EXTT4=
EXTT5=
EXTT6=
EXTT7=
EXTT8=
EXTT9=
PLAYORDER=
